<svg xmlns="http://www.w3.org/2000/svg" viewBox="0 0 1200 820">
  <defs>
    <clipPath id="miko-slice"><path d="M0 480 1200 300v136L0 616Z"/></clipPath>
    <clipPath id="miko-panel"><path d="M360 0h840v820H140Z"/></clipPath>
  </defs>
  <rect width="1200" height="820" fill="#111218"/>
  <path d="M360 0h840v820H140Z" fill="#f09acb" fill-opacity=".045"/>
  <text x="140" y="82" fill="#f09acb" font-family="Arial,sans-serif" font-size="20" font-weight="700" letter-spacing="6">MIKO / 06</text>
  <text x="1060" y="82" text-anchor="end" fill="#eeeeee" fill-opacity=".52" font-family="Arial,sans-serif" font-size="16" letter-spacing="4">DESKTOP COMPANION / 2026</text>
  <text x="-16" y="732" fill="#eeeeee" fill-opacity=".88" font-family="Arial Black,Arial,sans-serif" font-size="780" font-weight="900" letter-spacing="-62">M</text>
  <g clip-path="url(#miko-panel)">
    <text x="-16" y="732" fill="#f09acb" fill-opacity=".55" font-family="Arial Black,Arial,sans-serif" font-size="780" font-weight="900" letter-spacing="-62">M</text>
  </g>
  <text x="390" y="516" fill="#eeeeee" fill-opacity=".10" font-family="Arial Black,Arial,sans-serif" font-size="112" font-weight="900" letter-spacing="-5">PERIPHERAL</text>
  <g clip-path="url(#miko-slice)" transform="translate(-24 10)">
    <text x="-16" y="732" fill="#ffadd8" fill-opacity=".92" font-family="Arial Black,Arial,sans-serif" font-size="780" font-weight="900" letter-spacing="-62">M</text>
    <text x="390" y="516" fill="#eeeeee" fill-opacity=".22" font-family="Arial Black,Arial,sans-serif" font-size="112" font-weight="900" letter-spacing="-5">PERIPHERAL</text>
  </g>
  <!-- Telemetry signals -->
  <path d="M430 354 l140 -28 l120 42 l160 -64 l170 30" fill="none" stroke="#f09acb" stroke-opacity=".4" stroke-width="2.5" stroke-dasharray="6 4"/>
  <rect x="426" y="350" width="8" height="8" fill="#ffadd8" fill-opacity=".8"/>
  <rect x="566" y="322" width="8" height="8" fill="#f09acb" fill-opacity=".8"/>
  <rect x="686" y="364" width="8" height="8" fill="#ffadd8" fill-opacity=".8"/>
  <rect x="846" y="300" width="8" height="8" fill="#f09acb" fill-opacity=".8"/>
  <rect x="1016" y="330" width="8" height="8" fill="#ffadd8" fill-opacity=".8"/>
  <text x="430" y="380" fill="#eeeeee" fill-opacity=".36" font-family="Arial,sans-serif" font-size="11" letter-spacing="2">PROCESS</text>
  <text x="686" y="392" fill="#eeeeee" fill-opacity=".36" font-family="Arial,sans-serif" font-size="11" letter-spacing="2">AUDIO SESSION</text>
  <text x="1016" y="356" fill="#eeeeee" fill-opacity=".36" font-family="Arial,sans-serif" font-size="11" letter-spacing="2">HEURISTIC</text>
  <text x="430" y="225" fill="#eeeeee" fill-opacity=".96" font-family="Georgia,serif" font-size="130" font-style="italic" letter-spacing="-5">Miko</text>
  <path d="M140 154h280M584 154h476" stroke="#eeeeee" stroke-opacity=".24" stroke-width="2"/>
  <path d="M0 598 424 493M588 454l612-162" stroke="#f09acb" stroke-opacity=".68" stroke-width="3"/>
  <path d="M360 28 140 792M860 38 720 792" stroke="#eeeeee" stroke-opacity=".14" stroke-width="2"/>
  <path d="M140 660h220M880 660h180" stroke="#eeeeee" stroke-opacity=".24" stroke-width="2"/>
  <text x="1060" y="666" text-anchor="end" fill="#eeeeee" fill-opacity=".52" font-family="Arial,sans-serif" font-size="15" letter-spacing="4">COMPANION / 06</text>
</svg>
